<svg width="201" height="182" viewBox="0 0 201 182" fill="none" xmlns="http://www.w3.org/2000/svg">
<path fill-rule="evenodd" clip-rule="evenodd" d="M104 24V32V96C104 100.418 100.418 104 96 104C91.5817 104 88 100.418 88 96V32V24H104ZM8 29C3.58172 29 0 32.5817 0 37C0 41.4183 3.58172 45 8 45H18L18 69H8C3.58172 69 0 72.5817 0 77C0 81.4183 3.58172 85 8 85H26H56H70C74.4183 85 78 81.4183 78 77C78 72.5817 74.4183 69 70 69H64V45H70C74.4183 45 78 41.4183 78 37C78 32.5817 74.4183 29 70 29H56H26H8ZM48 45V69H34V45H48ZM133 139C133 134.582 136.582 131 141 131H154V112H131C126.582 112 123 108.418 123 104C123 99.5817 126.582 96 131 96H162H193C197.418 96 201 99.5817 201 104C201 108.418 197.418 112 193 112H170V131H181C185.142 131 188.549 134.148 188.959 138.182C188.986 138.451 189 138.724 189 139V174C189 178.418 185.418 182 181 182H141C136.582 182 133 178.418 133 174V139ZM162 147H149V166H173V147H162ZM191 57C191 73.0163 178.016 86 162 86C145.984 86 133 73.0163 133 57C133 40.9837 145.984 28 162 28C178.016 28 191 40.9837 191 57ZM176 57.5C176 64.9558 169.956 71 162.5 71C155.044 71 149 64.9558 149 57.5C149 50.0442 155.044 44 162.5 44C169.956 44 176 50.0442 176 57.5Z" fill="#1BCC66"/>
<path d="M96.3076 27C96.3076 27 106.815 25.125 111.221 19.5C115.627 13.875 118 3 118 3" stroke="#1BCC66" stroke-width="6" stroke-linecap="round"/>
<path d="M96.3076 27C96.3076 27 97.2373 15.2361 102.196 8.56989C107.154 1.90367 118 3.08006 118 3.08006" stroke="#1BCC66" stroke-width="6" stroke-linecap="round"/>
<path d="M96.3076 27C96.3076 27 95.223 19.7607 89.4384 15.6584C83.6538 11.5561 71 12.28 71 12.28" stroke="#1BCC66" stroke-width="6" stroke-linecap="round"/>
<path d="M96.3077 27C96.3077 27 84.0902 24.4536 79.7268 21.9072C75.3634 19.3607 71 12.2308 71 12.2308" stroke="#1BCC66" stroke-width="6" stroke-linecap="round"/>
<path d="M98.8542 23.8067C98.9616 23.7932 101.149 20.7781 101.42 20.3042C102.213 18.917 103.685 17.0835 104.902 16.1095C107.332 14.1658 107.542 9.74945 110.217 8.41229" stroke="#1BCC66" stroke-width="9" stroke-linecap="round"/>
<path d="M79.7946 16.8426C79.8765 17.4983 83.7301 17.6422 84.478 18.3902C85.133 19.0451 87.6824 20.5079 88.5913 20.5079" stroke="#1BCC66" stroke-width="9" stroke-linecap="round"/>
</svg>
