<svg width="53" height="30" viewBox="0 0 53 30" fill="none" xmlns="http://www.w3.org/2000/svg">
<path d="M28.3076 27C28.3076 27 38.8148 25.125 43.2211 19.5C47.6273 13.875 49.9999 3 49.9999 3" stroke="#1BCC66" stroke-width="6" stroke-linecap="round"/>
<path d="M28.3076 27C28.3076 27 29.2373 15.2361 34.1955 8.56989C39.1538 1.90367 49.9999 3.08006 49.9999 3.08006" stroke="#1BCC66" stroke-width="6" stroke-linecap="round"/>
<path d="M28.3076 27C28.3076 27 27.223 19.7607 21.4384 15.6584C15.6538 11.5561 2.99996 12.28 2.99996 12.28" stroke="#1BCC66" stroke-width="6" stroke-linecap="round"/>
<path d="M28.3077 27C28.3077 27 16.0902 24.4536 11.7268 21.9072C7.36339 19.3607 3 12.2308 3 12.2308" stroke="#1BCC66" stroke-width="6" stroke-linecap="round"/>
<path d="M30.8542 23.8067C30.9616 23.7932 33.1492 20.7781 33.42 20.3042C34.2127 18.917 35.6846 17.0835 36.902 16.1095C39.3316 14.1658 39.5424 9.74945 42.2168 8.41229" stroke="#1BCC66" stroke-width="9" stroke-linecap="round"/>
<path d="M11.7946 16.8426C11.8765 17.4983 15.7301 17.6422 16.478 18.3902C17.133 19.0451 19.6824 20.5079 20.5913 20.5079" stroke="#1BCC66" stroke-width="9" stroke-linecap="round"/>
</svg>
